<svg width="762" height="110" viewBox="0 0 762 110" fill="none" xmlns="http://www.w3.org/2000/svg">
<path d="M10.5109 18.9842C7.41947 18.9842 4.87762 18.0948 2.88535 16.3161C0.961784 14.469 0 12.2114 0 9.5434C0 6.80694 0.961784 4.54936 2.88535 2.77066C4.87762 0.923555 7.41947 0 10.5109 0C13.5337 0 16.0068 0.923555 17.9304 2.77066C19.9227 4.54936 20.9188 6.80694 20.9188 9.5434C20.9188 12.2114 19.9227 14.469 17.9304 16.3161C16.0068 18.0948 13.5337 18.9842 10.5109 18.9842ZM19.27 24.936V82.1963H1.64877V24.936H19.27Z" fill="white"/>
<path d="M55.4319 83.0173C50.4169 83.0173 45.9515 82.1621 42.0356 80.4519C38.1198 78.7416 35.0284 76.4156 32.7613 73.4739C30.4942 70.4638 29.2233 67.1116 28.9485 63.4174H46.3637C46.5698 65.4013 47.4972 67.009 49.146 68.2404C50.7947 69.4718 52.8214 70.0875 55.2258 70.0875C57.4242 70.0875 59.1073 69.677 60.2752 68.8561C61.5118 67.9668 62.13 66.838 62.13 65.4697C62.13 63.8279 61.2713 62.6307 59.5538 61.8781C57.8364 61.0572 55.0541 60.1679 51.2069 59.2101C47.085 58.2523 43.6501 57.2604 40.9021 56.2342C38.1542 55.1396 35.784 53.4635 33.7918 51.206C31.7995 48.88 30.8034 45.7673 30.8034 41.8678C30.8034 38.5841 31.6965 35.6082 33.4826 32.9401C35.3375 30.2036 38.0168 28.0487 41.5204 26.4752C45.0927 24.9018 49.3177 24.115 54.1953 24.115C61.4087 24.115 67.0764 25.8937 71.1983 29.4511C75.3889 33.0085 77.7934 37.7289 78.4117 43.6123H62.13C61.8553 41.6284 60.9622 40.0549 59.4508 38.8919C58.0081 37.7289 56.0845 37.1474 53.6801 37.1474C51.6191 37.1474 50.0391 37.5579 48.9399 38.3788C47.8407 39.1313 47.2911 40.1917 47.2911 41.5599C47.2911 43.2018 48.1498 44.4332 49.8673 45.2542C51.6535 46.0751 54.4014 46.896 58.1112 47.717C62.3705 48.8116 65.8398 49.9061 68.519 51.0007C71.1983 52.0269 73.5341 53.7372 75.5263 56.1316C77.5873 58.4576 78.6521 61.6045 78.7208 65.5724C78.7208 68.9245 77.759 71.9346 75.8355 74.6027C73.9806 77.2023 71.267 79.2546 67.6947 80.7597C64.191 82.2647 60.1034 83.0173 55.4319 83.0173Z" fill="white"/>
<path d="M85.9978 53.4635C85.9978 47.5802 87.097 42.4151 89.2953 37.9683C91.5624 33.5216 94.6195 30.101 98.4666 27.7066C102.314 25.3122 106.607 24.115 111.348 24.115C115.401 24.115 118.939 24.936 121.962 26.5778C125.053 28.2197 127.423 30.3747 129.072 33.0427V24.936H146.693V82.1963H129.072V74.0896C127.354 76.7576 124.95 78.9126 121.859 80.5545C118.836 82.1963 115.298 83.0173 111.245 83.0173C106.573 83.0173 102.314 81.8201 98.4666 79.4257C94.6195 76.9629 91.5624 73.5081 89.2953 69.0613C87.097 64.5462 85.9978 59.3469 85.9978 53.4635ZM129.072 53.5662C129.072 49.1878 127.835 45.733 125.362 43.2018C122.958 40.6706 120.004 39.405 116.5 39.405C112.996 39.405 110.008 40.6706 107.535 43.2018C105.13 45.6646 103.928 49.0852 103.928 53.4635C103.928 57.8419 105.13 61.3309 107.535 63.9305C110.008 66.4617 112.996 67.7273 116.5 67.7273C120.004 67.7273 122.958 66.4617 125.362 63.9305C127.835 61.3993 129.072 57.9445 129.072 53.5662Z" fill="white"/>
<path d="M155.938 53.4635C155.938 47.5802 157.037 42.4151 159.235 37.9683C161.502 33.5216 164.559 30.101 168.407 27.7066C172.254 25.3122 176.547 24.115 181.288 24.115C185.066 24.115 188.501 24.9018 191.592 26.4752C194.753 28.0487 197.226 30.1694 199.012 32.8375V6.25965H216.633V82.1963H199.012V73.987C197.363 76.7234 194.993 78.9126 191.902 80.5545C188.879 82.1963 185.341 83.0173 181.288 83.0173C176.547 83.0173 172.254 81.8201 168.407 79.4257C164.559 76.9629 161.502 73.5081 159.235 69.0613C157.037 64.5462 155.938 59.3469 155.938 53.4635ZM199.012 53.5662C199.012 49.1878 197.775 45.733 195.302 43.2018C192.898 40.6706 189.944 39.405 186.44 39.405C182.936 39.405 179.948 40.6706 177.475 43.2018C175.07 45.6646 173.868 49.0852 173.868 53.4635C173.868 57.8419 175.07 61.3309 177.475 63.9305C179.948 66.4617 182.936 67.7273 186.44 67.7273C189.944 67.7273 192.898 66.4617 195.302 63.9305C197.775 61.3993 199.012 57.9445 199.012 53.5662Z" fill="white"/>
<path d="M237.625 83.0173C234.534 83.0173 231.992 82.1279 230 80.3492C228.076 78.5021 227.114 76.2445 227.114 73.5765C227.114 70.84 228.076 68.5483 230 66.7011C231.992 64.854 234.534 63.9305 237.625 63.9305C240.648 63.9305 243.121 64.854 245.045 66.7011C247.037 68.5483 248.033 70.84 248.033 73.5765C248.033 76.2445 247.037 78.5021 245.045 80.3492C243.121 82.1279 240.648 83.0173 237.625 83.0173Z" fill="white"/>
<path d="M254.961 53.4635C254.961 47.5802 256.06 42.4151 258.258 37.9683C260.525 33.5216 263.582 30.101 267.43 27.7066C271.277 25.3122 275.57 24.115 280.311 24.115C284.364 24.115 287.902 24.936 290.925 26.5778C294.016 28.2197 296.386 30.3747 298.035 33.0427V24.936H315.656V82.1963H298.035V74.0896C296.317 76.7576 293.913 78.9126 290.822 80.5545C287.799 82.1963 284.261 83.0173 280.208 83.0173C275.536 83.0173 271.277 81.8201 267.43 79.4257C263.582 76.9629 260.525 73.5081 258.258 69.0613C256.06 64.5462 254.961 59.3469 254.961 53.4635ZM298.035 53.5662C298.035 49.1878 296.798 45.733 294.325 43.2018C291.921 40.6706 288.967 39.405 285.463 39.405C281.959 39.405 278.971 40.6706 276.498 43.2018C274.093 45.6646 272.891 49.0852 272.891 53.4635C272.891 57.8419 274.093 61.3309 276.498 63.9305C278.971 66.4617 281.959 67.7273 285.463 67.7273C288.967 67.7273 291.921 66.4617 294.325 63.9305C296.798 61.3993 298.035 57.9445 298.035 53.5662Z" fill="white"/>
<path d="M324.901 53.5662C324.901 47.6144 326.103 42.4151 328.507 37.9683C330.981 33.5216 334.381 30.101 338.709 27.7066C343.106 25.3122 348.121 24.115 353.754 24.115C360.968 24.115 366.979 25.9963 371.788 29.759C376.665 33.5216 379.86 38.8235 381.371 45.6646H362.616C361.036 41.2863 357.979 39.0971 353.445 39.0971C350.216 39.0971 347.64 40.3628 345.716 42.894C343.793 45.3568 342.831 48.9142 342.831 53.5662C342.831 58.2181 343.793 61.8097 345.716 64.341C347.64 66.8038 350.216 68.0352 353.445 68.0352C357.979 68.0352 361.036 65.846 362.616 61.4677H381.371C379.86 68.172 376.665 73.4397 371.788 77.2707C366.91 81.1018 360.899 83.0173 353.754 83.0173C348.121 83.0173 343.106 81.8201 338.709 79.4257C334.381 77.0313 330.981 73.6107 328.507 69.164C326.103 64.7172 324.901 59.5179 324.901 53.5662Z" fill="white"/>
<path d="M387.293 53.4635C387.293 47.5802 388.392 42.4151 390.591 37.9683C392.858 33.5216 395.915 30.101 399.762 27.7066C403.609 25.3122 407.903 24.115 412.643 24.115C416.696 24.115 420.234 24.936 423.257 26.5778C426.348 28.2197 428.719 30.3747 430.367 33.0427V24.936H447.989V82.1963H430.367V74.0896C428.65 76.7576 426.245 78.9126 423.154 80.5545C420.131 82.1963 416.593 83.0173 412.54 83.0173C407.868 83.0173 403.609 81.8201 399.762 79.4257C395.915 76.9629 392.858 73.5081 390.591 69.0613C388.392 64.5462 387.293 59.3469 387.293 53.4635ZM430.367 53.5662C430.367 49.1878 429.131 45.733 426.658 43.2018C424.253 40.6706 421.299 39.405 417.795 39.405C414.292 39.405 411.303 40.6706 408.83 43.2018C406.426 45.6646 405.224 49.0852 405.224 53.4635C405.224 57.8419 406.426 61.3309 408.83 63.9305C411.303 66.4617 414.292 67.7273 417.795 67.7273C421.299 67.7273 424.253 66.4617 426.658 63.9305C429.131 61.3993 430.367 57.9445 430.367 53.5662Z" fill="white"/>
<path d="M457.233 53.4635C457.233 47.5802 458.332 42.4151 460.531 37.9683C462.798 33.5216 465.855 30.101 469.702 27.7066C473.549 25.3122 477.843 24.115 482.583 24.115C486.361 24.115 489.796 24.9018 492.888 26.4752C496.048 28.0487 498.521 30.1694 500.307 32.8375V6.25965H517.929V82.1963H500.307V73.987C498.659 76.7234 496.288 78.9126 493.197 80.5545C490.174 82.1963 486.636 83.0173 482.583 83.0173C477.843 83.0173 473.549 81.8201 469.702 79.4257C465.855 76.9629 462.798 73.5081 460.531 69.0613C458.332 64.5462 457.233 59.3469 457.233 53.4635ZM500.307 53.5662C500.307 49.1878 499.071 45.733 496.598 43.2018C494.193 40.6706 491.239 39.405 487.735 39.405C484.232 39.405 481.243 40.6706 478.77 43.2018C476.366 45.6646 475.164 49.0852 475.164 53.4635C475.164 57.8419 476.366 61.3309 478.77 63.9305C481.243 66.4617 484.232 67.7273 487.735 67.7273C491.239 67.7273 494.193 66.4617 496.598 63.9305C499.071 61.3993 500.307 57.9445 500.307 53.5662Z" fill="white"/>
<path d="M584.88 52.6426C584.88 54.2845 584.777 55.9948 584.571 57.7735H544.691C544.966 61.3309 546.1 64.0673 548.092 65.9828C550.153 67.8299 552.66 68.7535 555.614 68.7535C560.011 68.7535 563.068 66.9064 564.786 63.2122H583.541C582.579 66.9748 580.827 70.3612 578.285 73.3713C575.812 76.3814 572.686 78.7416 568.908 80.4519C565.129 82.1621 560.904 83.0173 556.233 83.0173C550.599 83.0173 545.584 81.8201 541.188 79.4257C536.791 77.0313 533.356 73.6107 530.883 69.164C528.41 64.7172 527.173 59.5179 527.173 53.5662C527.173 47.6144 528.375 42.4151 530.78 37.9683C533.253 33.5216 536.688 30.101 541.085 27.7066C545.481 25.3122 550.531 24.115 556.233 24.115C561.797 24.115 566.744 25.278 571.072 27.604C575.4 29.93 578.766 33.248 581.17 37.5579C583.644 41.8678 584.88 46.896 584.88 52.6426ZM566.847 48.0248C566.847 45.0147 565.816 42.6203 563.755 40.8416C561.694 39.0629 559.118 38.1736 556.027 38.1736C553.073 38.1736 550.565 39.0287 548.504 40.739C546.512 42.4493 545.275 44.8779 544.794 48.0248H566.847Z" fill="white"/>
<path d="M667.547 24.3203C674.691 24.3203 680.359 26.4752 684.55 30.7851C688.809 35.0951 690.939 41.0811 690.939 48.7431V82.1963H673.42V51.1033C673.42 47.4091 672.424 44.57 670.432 42.5861C668.508 40.5338 665.829 39.5076 662.394 39.5076C658.959 39.5076 656.246 40.5338 654.253 42.5861C652.33 44.57 651.368 47.4091 651.368 51.1033V82.1963H633.85V51.1033C633.85 47.4091 632.854 44.57 630.861 42.5861C628.938 40.5338 626.259 39.5076 622.824 39.5076C619.389 39.5076 616.675 40.5338 614.683 42.5861C612.759 44.57 611.798 47.4091 611.798 51.1033V82.1963H594.176V24.936H611.798V32.1192C613.584 29.7248 615.919 27.8435 618.805 26.4752C621.69 25.0386 624.953 24.3203 628.594 24.3203C632.922 24.3203 636.77 25.2438 640.136 27.0909C643.571 28.938 646.25 31.5719 648.174 34.9925C650.166 31.8455 652.879 29.2801 656.314 27.2962C659.749 25.3122 663.493 24.3203 667.547 24.3203Z" fill="white"/>
<path d="M762 24.936L725.933 109.39H706.972L720.162 80.2466L696.77 24.936H716.453L729.746 60.7494L742.936 24.936H762Z" fill="white"/>
</svg>
